<svg width="151" height="150" viewBox="0 0 151 150"><g clip-path="url(#a)"><mask id="b" width="151" height="150" x="0" y="0" maskUnits="userSpaceOnUse" style="mask-type:luminance"><path d="M.2 0h149.999v150h-150V0Z"/></mask><g stroke="#0265DC" stroke-linecap="round" stroke-linejoin="round" stroke-miterlimit="10" stroke-width="3.5" mask="url(#b)"><path d="M42.473 143.038h57.842a1.47 1.47 0 0 0 1.462-1.462v-3.43c0-2.699-2.209-4.9-4.9-4.9H45.903c-2.69 0-4.891 2.201-4.891 4.9v3.43c0 .806.656 1.462 1.461 1.462ZM51.934 133.246l3.911-13.08m31.101 0 3.903 13.08M18.355 109.054h94.665M2.395 81.64c0 2.126 1.735 3.87 3.861 3.87h87.108c2.126 0 3.861-1.744 3.861-3.87V10.824a3.87 3.87 0 0 0-3.861-3.862H6.256a3.87 3.87 0 0 0-3.861 3.862V81.64Z"/><path d="M66.323 120.166H22.358a4.016 4.016 0 0 1-4.003-4.003V85.51m94.665 34.656H76.43m20.795-73.573h23.203a4.016 4.016 0 0 1 4.003 4.003V90.6M54.888 27.459h42.338m-94.831 0H44.74M85.606 17.202v.017M74.746 17.202v.017M63.883 17.202v.017M14.012 17.202l22.489.017M84.427 38.778H51.889a1.49 1.49 0 0 0-1.487 1.487v9.808c0 .822.673 1.494 1.487 1.494h32.538c.813 0 1.486-.672 1.486-1.494v-9.808a1.49 1.49 0 0 0-1.486-1.487ZM85.913 63.784h-35.51M67.734 74.19h18.179m-35.51 0h5.422M130.512 134.251h-.074M117.064 143.038h26.882a4.064 4.064 0 0 0 4.053-4.053v-44.34c0-2.226-1.827-4.044-4.053-4.044h-26.882a4.054 4.054 0 0 0-4.044 4.044v44.34a4.056 4.056 0 0 0 4.044 4.053ZM15.202 38.778H37.6c.822 0 1.494.665 1.494 1.487v32.43A1.5 1.5 0 0 1 37.6 74.19H15.202a1.5 1.5 0 0 1-1.495-1.495v-32.43c0-.822.673-1.487 1.495-1.487Z"/></g></g><defs><clipPath id="a"><path d="M.2 0h150v150H.2z"/></clipPath></defs></svg>