<svg xmlns="http://www.w3.org/2000/svg" width="300" height="58" fill="none"><path fill="#0265DC" d="M0 53.54V4.143h21.988c3.947 0 7.432.597 10.456 1.79 3.075 1.194 5.484 2.962 7.227 5.305 1.743 2.342 2.614 5.238 2.614 8.686 0 3.359-.897 6.21-2.691 8.553-1.743 2.343-4.152 4.133-7.227 5.37-3.024 1.194-6.483 1.79-10.379 1.79H11.917V53.54H0Zm11.917-26.853h10.148c1.691 0 3.152-.288 4.382-.862 1.23-.575 2.179-1.37 2.845-2.387.717-1.017 1.076-2.188 1.076-3.514 0-1.37-.358-2.564-1.076-3.581-.666-1.017-1.615-1.812-2.845-2.387-1.23-.575-2.69-.862-4.382-.862H11.917v13.593ZM47.545 53.54V17.338h11.532V53.54H47.545Zm0-39.451V4.143h11.532v9.946H47.545ZM62.672 53.54l14.685-18.167-14.761-18.035h13.377l11.07 14.056h-5.842l11.07-14.056h13.378L90.888 35.373l14.607 18.167h-13.3l-10.84-14.056h5.535L76.05 53.54H62.672ZM109.188 53.54V17.338h10.764v8.818l-1.154-1.459c.615-2.784 2.102-4.84 4.459-6.166 2.358-1.326 5.177-1.99 8.457-1.99 3.486 0 6.535.774 9.149 2.322 2.666 1.503 4.331 3.536 4.998 6.1l-3.306.265c1.384-2.962 3.357-5.15 5.92-6.564 2.562-1.415 5.561-2.122 8.995-2.122 3.024 0 5.689.574 7.996 1.724 2.357 1.15 4.202 2.763 5.535 4.84 1.333 2.034 1.999 4.42 1.999 7.161V53.54h-11.532V32.39c0-1.415-.308-2.63-.923-3.647-.564-1.017-1.384-1.812-2.46-2.387s-2.383-.862-3.921-.862c-1.486 0-2.793.287-3.921.862a6.46 6.46 0 0 0-2.537 2.387c-.564 1.017-.846 2.232-.846 3.647V53.54h-11.532V32.39c0-1.415-.308-2.63-.923-3.647-.563-1.017-1.384-1.812-2.46-2.387s-2.383-.862-3.921-.862c-1.486 0-2.793.287-3.921.862a6.46 6.46 0 0 0-2.537 2.387c-.564 1.017-.846 2.232-.846 3.647V53.54h-11.532ZM192.044 54.336c-3.024 0-5.638-.42-7.842-1.26-2.204-.84-3.895-2.033-5.074-3.58-1.179-1.592-1.768-3.47-1.768-5.636 0-2.034.538-3.824 1.614-5.371 1.077-1.591 2.717-2.917 4.921-3.978 2.255-1.061 5.048-1.813 8.38-2.255l12.839-1.79v7.294l-10.763 1.657c-1.64.265-2.896.73-3.767 1.393-.872.618-1.307 1.525-1.307 2.718 0 1.105.487 1.967 1.46 2.586.974.619 2.179.928 3.614.928 1.896 0 3.562-.353 4.997-1.06 1.435-.708 2.537-1.658 3.306-2.852a7.177 7.177 0 0 0 1.23-4.044V29.67c0-1.37-.641-2.52-1.922-3.448-1.23-.928-2.921-1.392-5.074-1.392-2.05 0-3.87.486-5.459 1.459-1.537.972-2.665 2.254-3.382 3.845l-9.226-3.779c.82-2.033 2.127-3.78 3.921-5.238 1.794-1.459 3.946-2.586 6.458-3.382 2.511-.795 5.253-1.193 8.226-1.193 3.537 0 6.663.552 9.38 1.657 2.716 1.106 4.818 2.653 6.304 4.642 1.538 1.945 2.306 4.221 2.306 6.83v23.87h-10.763v-5.836l2.614-.398c-1.23 1.592-2.588 2.918-4.075 3.979-1.486 1.017-3.152 1.768-4.997 2.254-1.845.53-3.895.796-6.151.796ZM222.336 53.54V17.338H233.1v8.685l-.769-1.26c.923-3.05 2.435-5.105 4.536-6.166 2.153-1.105 4.69-1.657 7.611-1.657h2.46v8.62h-3.613c-2.819 0-5.1.75-6.842 2.254-1.743 1.459-2.614 3.536-2.614 6.233V53.54h-11.533ZM272.177 53.938c-5.075 0-9.021-1.171-11.84-3.514-2.768-2.387-4.152-5.702-4.152-9.946v-14.52h-7.073v-8.62h.385c2.152 0 3.792-.465 4.92-1.393 1.179-.928 1.768-2.32 1.768-4.177V9.116h11.532v8.222h9.841v8.62h-9.841v13.857c0 1.238.257 2.277.769 3.116.513.796 1.307 1.393 2.384 1.79 1.076.398 2.409.597 3.997.597.359 0 .769-.022 1.231-.066.461-.044.948-.088 1.46-.133v8.421c-.768.089-1.64.177-2.614.265-.973.089-1.896.133-2.767.133ZM288.468 53.54v-9.946H300v9.946h-11.532Z"/></svg>