<svg width="64" height="65"><path d="M12.532 17.325c-2.666 2.933-4.266 6.133-4.266 11.467 0 9.333 6.666 17.6 16 21.866l2.4-3.466c-8.8-4.8-10.667-10.934-11.2-14.934 1.333.8 3.2 1.067 5.066.8 4.8-.533 8.534-4.266 8.534-9.333 0-2.4-1.067-4.8-2.667-6.667-1.867-1.866-4-2.666-6.667-2.666-2.933 0-5.6 1.333-7.2 2.933Zm26.667 0c-2.667 2.933-4.267 6.133-4.267 11.467 0 9.333 6.667 17.6 16 21.866l2.4-3.466c-8.8-4.8-10.666-10.934-11.2-14.934 1.334.8 3.2 1.067 5.067.8 4.8-.533 8.533-4.266 8.533-9.333 0-2.4-1.066-4.8-2.666-6.667-1.6-1.866-4-2.666-6.667-2.666-2.933 0-5.6 1.333-7.2 2.933Z"/></svg>
